<?xml version="1.0" standalone="no"?>
<!DOCTYPE svg PUBLIC "-//W3C//DTD SVG 1.1//EN" "http://www.w3.org/Graphics/SVG/1.1/DTD/svg11.dtd" >
<svg xmlns="http://www.w3.org/2000/svg">
<metadata>Generated by IcoMoon</metadata>
<defs>
<font id="icomoon" horiz-adv-x="1024">
<font-face units-per-em="1024" ascent="960" descent="-64" />
<missing-glyph horiz-adv-x="1024" />
<glyph unicode="&#x20;" horiz-adv-x="512" d="" />
<glyph unicode="&#xe986;" glyph-name="search1" d="M992.264 88.603l-242.552 206.294c-25.074 22.566-51.89 32.926-73.552 31.926 57.256 67.068 91.842 154.078 91.842 249.176 0 212.078-171.922 384.001-384.001 384.001-212.076 0-384.001-171.922-384.001-384.001s171.922-384.001 384.001-384.001c95.098 0 182.108 34.586 249.176 91.844-1-21.662 9.36-48.478 31.926-73.552l206.294-242.552c35.322-39.246 93.022-42.554 128.22-7.356s31.892 92.898-7.354 128.22zM384.001 319.999c-141.384 0-256 114.616-256 256s114.616 256 256 256 256-114.616 256-256-114.614-256-256-256z" />
<glyph unicode="&#xf002;" glyph-name="search" horiz-adv-x="951" d="M658.286 475.428c0 141.143-114.857 256-256 256s-256-114.857-256-256 114.857-256 256-256 256 114.857 256 256zM950.857 0c0-40-33.143-73.143-73.143-73.143-19.429 0-38.286 8-51.429 21.714l-196 195.429c-66.857-46.286-146.857-70.857-228-70.857-222.286 0-402.286 180-402.286 402.286s180 402.286 402.286 402.286 402.286-180 402.286-402.286c0-81.143-24.571-161.143-70.857-228l196-196c13.143-13.143 21.143-32 21.143-51.429z" />
<glyph unicode="&#xf00d;" glyph-name="close, remove, times" horiz-adv-x="805" d="M804.574 193.691c0-16.932-6.772-33.862-18.963-46.053l-92.106-92.106c-12.191-12.191-29.121-18.963-46.053-18.963s-33.862 6.772-46.053 18.963l-199.113 199.113-199.113-199.113c-12.191-12.191-29.121-18.963-46.053-18.963s-33.862 6.772-46.053 18.963l-92.106 92.106c-12.191 12.191-18.963 29.121-18.963 46.053s6.772 33.862 18.963 46.053l199.113 199.113-199.113 199.113c-12.191 12.191-18.963 29.121-18.963 46.053s6.772 33.862 18.963 46.053l92.106 92.106c12.191 12.191 29.121 18.963 46.053 18.963s33.862-6.772 46.053-18.963l199.113-199.113 199.113 199.113c12.191 12.191 29.121 18.963 46.053 18.963s33.862-6.772 46.053-18.963l92.106-92.106c12.191-12.191 18.963-29.121 18.963-46.053s-6.772-33.862-18.963-46.053l-199.113-199.113 199.113-199.113c12.191-12.191 18.963-29.121 18.963-46.053z" />
<glyph unicode="&#xf013;" glyph-name="cog, gear" horiz-adv-x="878" d="M585.143 438.857c0 80.571-65.714 146.286-146.286 146.286s-146.286-65.714-146.286-146.286 65.714-146.286 146.286-146.286 146.286 65.714 146.286 146.286zM877.714 501.143v-126.857c0-8.571-6.857-18.857-16-20.571l-105.714-16c-6.286-18.286-13.143-35.429-22.286-52 19.429-28 40-53.143 61.143-78.857 3.429-4 5.714-9.143 5.714-14.286s-1.714-9.143-5.143-13.143c-13.714-18.286-90.857-102.286-110.286-102.286-5.143 0-10.286 2.286-14.857 5.143l-78.857 61.714c-16.571-8.571-34.286-16-52-21.714-4-34.857-7.429-72-16.571-106.286-2.286-9.143-10.286-16-20.571-16h-126.857c-10.286 0-19.429 7.429-20.571 17.143l-16 105.143c-17.714 5.714-34.857 12.571-51.429 21.143l-80.571-61.143c-4-3.429-9.143-5.143-14.286-5.143s-10.286 2.286-14.286 6.286c-30.286 27.429-70.286 62.857-94.286 96-2.857 4-4 8.571-4 13.143 0 5.143 1.714 9.143 4.571 13.143 19.429 26.286 40.571 51.429 60 78.286-9.714 18.286-17.714 37.143-23.429 56.571l-104.571 15.429c-9.714 1.714-16.571 10.857-16.571 20.571v126.857c0 8.571 6.857 18.857 15.429 20.571l106.286 16c5.714 18.286 13.143 35.429 22.286 52.571-19.429 27.429-40 53.143-61.143 78.857-3.429 4-5.714 8.571-5.714 13.714s2.286 9.143 5.143 13.143c13.714 18.857 90.857 102.286 110.286 102.286 5.143 0 10.286-2.286 14.857-5.714l78.857-61.143c16.571 8.571 34.286 16 52 21.714 4 34.857 7.429 72 16.571 106.286 2.286 9.143 10.286 16 20.571 16h126.857c10.286 0 19.429-7.429 20.571-17.143l16-105.143c17.714-5.714 34.857-12.571 51.429-21.143l81.143 61.143c3.429 3.429 8.571 5.143 13.714 5.143s10.286-2.286 14.286-5.714c30.286-28 70.286-63.429 94.286-97.143 2.857-3.429 4-8 4-12.571 0-5.143-1.714-9.143-4.571-13.143-19.429-26.286-40.571-51.429-60-78.286 9.714-18.286 17.714-37.143 23.429-56l104.571-16c9.714-1.714 16.571-10.857 16.571-20.571z" />
<glyph unicode="&#xf014;" glyph-name="trash-o" horiz-adv-x="805" d="M292.572 530.284v-329.144c0-10.286-8-18.286-18.286-18.286h-36.571c-10.286 0-18.286 8-18.286 18.286v329.144c0 10.286 8 18.286 18.286 18.286h36.571c10.286 0 18.286-8 18.286-18.286zM438.858 530.284v-329.144c0-10.286-8-18.286-18.286-18.286h-36.571c-10.286 0-18.286 8-18.286 18.286v329.144c0 10.286 8 18.286 18.286 18.286h36.571c10.286 0 18.286-8 18.286-18.286zM585.145 530.284v-329.144c0-10.286-8-18.286-18.286-18.286h-36.571c-10.286 0-18.286 8-18.286 18.286v329.144c0 10.286 8 18.286 18.286 18.286h36.571c10.286 0 18.286-8 18.286-18.286zM658.288 116.568v541.716h-512.002v-541.716c0-27.429 15.429-43.429 18.286-43.429h475.431c2.857 0 18.286 16 18.286 43.429zM274.287 731.427h256.001l-27.429 66.857c-1.714 2.286-6.857 5.714-9.714 6.286h-181.144c-3.429-0.571-8-4-9.714-6.286zM804.574 713.142v-36.571c0-10.286-8-18.286-18.286-18.286h-54.857v-541.716c0-62.857-41.143-116.571-91.429-116.571h-475.431c-50.286 0-91.429 51.429-91.429 114.286v544.002h-54.857c-10.286 0-18.286 8-18.286 18.286v36.571c0 10.286 8 18.286 18.286 18.286h176.572l40 95.429c11.429 28 45.714 50.857 76 50.857h182.858c30.286 0 64.571-22.857 76-50.857l40-95.429h176.572c10.286 0 18.286-8 18.286-18.286z" />
<glyph unicode="&#xf015;" glyph-name="home" horiz-adv-x="951" d="M815.131 381.282v-283.085c0-20.642-17.103-37.744-37.744-37.744h-226.468v226.468h-150.979v-226.468h-226.468c-20.642 0-37.744 17.103-37.744 37.744v283.085c0 1.18 0.589 2.359 0.589 3.539l339.111 279.546 339.111-279.546c0.589-1.18 0.589-2.359 0.589-3.539zM946.648 421.975l-36.566-43.643c-2.949-3.539-7.667-5.897-12.385-6.488h-1.769c-4.718 0-8.846 1.18-12.385 4.128l-408.114 340.291-408.114-340.291c-4.128-2.949-8.846-4.718-14.154-4.128-4.718 0.589-9.436 2.949-12.385 6.488l-36.566 43.643c-6.488 7.667-5.308 20.052 2.359 26.539l424.037 353.266c24.77 20.642 64.873 20.642 89.643 0l143.902-120.311v115.004c0 10.616 8.257 18.873 18.873 18.873h113.234c10.616 0 18.873-8.257 18.873-18.873v-240.622l129.158-107.336c7.667-6.488 8.846-18.873 2.359-26.539z" />
<glyph unicode="&#xf040;" glyph-name="pencil" horiz-adv-x="866" d="M207.429 73.143l52 52-134.286 134.286-52-52v-61.143h73.143v-73.143h61.143zM506.286 603.428c0 7.429-5.143 12.571-12.571 12.571-3.429 0-6.857-1.143-9.714-4l-309.714-309.714c-2.857-2.857-4-6.286-4-9.714 0-7.429 5.143-12.571 12.571-12.571 3.429 0 6.857 1.143 9.714 4l309.714 309.714c2.857 2.857 4 6.286 4 9.714zM475.429 713.143l237.714-237.714-475.429-475.429h-237.714v237.714zM865.714 658.286c0-19.429-8-38.286-21.143-51.429l-94.857-94.857-237.714 237.714 94.857 94.286c13.143 13.714 32 21.714 51.429 21.714s38.286-8 52-21.714l134.286-133.714c13.143-13.714 21.143-32.571 21.143-52z" />
<glyph unicode="&#xf044;" glyph-name="edit, pencil-square-o" horiz-adv-x="1025" d="M510.067 236.667l66.631 66.631-87.309 87.309-66.631-66.631v-32.166h55.142v-55.142h32.166zM762.803 650.235c-5.17 5.17-13.785 4.595-18.955-0.574l-201.040-201.040c-5.17-5.17-5.744-13.785-0.574-18.955s13.785-4.595 18.955 0.574l201.040 201.040c5.17 5.17 5.744 13.785 0.574 18.955zM808.755 309.042v-109.136c0-91.33-74.097-165.427-165.427-165.427h-477.902c-91.33 0-165.427 74.097-165.427 165.427v477.902c0 91.33 74.097 165.427 165.427 165.427h477.902c22.976 0 45.952-4.595 67.205-14.36 5.17-2.298 9.191-7.468 10.34-13.211 1.149-6.319-0.574-12.062-5.17-16.657l-28.146-28.146c-5.17-5.17-12.062-6.893-18.381-4.595-8.616 2.298-17.232 3.447-25.848 3.447h-477.902c-50.548 0-91.905-41.357-91.905-91.905v-477.902c0-50.548 41.357-91.905 91.905-91.905h477.902c50.548 0 91.905 41.357 91.905 91.905v72.375c0 4.595 1.723 9.191 5.17 12.636l36.761 36.761c5.744 5.744 13.211 6.893 20.104 4.021s11.488-9.191 11.488-16.657zM753.612 732.949l165.427-165.427-385.998-385.998h-165.427v165.427zM1008.647 657.128l-52.844-52.844-165.427 165.427 52.844 52.844c21.253 21.253 56.865 21.253 78.118 0l87.309-87.309c21.253-21.253 21.253-56.865 0-78.118z" />
<glyph unicode="&#xf045;" glyph-name="share-square-o" horiz-adv-x="954" d="M807.605 312.095v-148.559c0-91.2-73.992-165.192-165.192-165.192h-477.224c-91.2 0-165.192 73.992-165.192 165.192v477.224c0 91.2 73.992 165.192 165.192 165.192h146.264c9.751 0 18.355-8.030 18.355-18.355 0-9.178-6.31-16.634-14.913-18.355-28.679-9.751-54.491-21.223-76.287-34.415-2.868-1.147-5.736-2.295-9.178-2.295h-64.242c-50.476 0-91.774-41.298-91.774-91.774v-477.224c0-50.476 41.298-91.774 91.774-91.774h477.224c50.476 0 91.774 41.298 91.774 91.774v122.748c0 6.883 4.015 13.193 10.325 16.634 11.472 5.162 21.796 12.618 30.974 21.223 5.162 5.162 13.193 7.457 20.076 4.588s12.045-9.178 12.045-16.634zM943.545 596.594l-220.257-220.257c-6.883-7.457-16.060-10.898-25.811-10.898-4.588 0-9.751 1.147-14.34 2.868-13.193 5.736-22.37 18.928-22.37 33.841v110.128h-91.774c-126.189 0-206.491-24.091-251.231-75.14-46.461-53.344-60.227-139.381-42.446-271.306 1.147-8.030-4.015-16.060-11.472-19.502-2.295-0.573-4.588-1.147-6.883-1.147-5.736 0-11.472 2.868-14.913 7.457-4.015 5.736-95.215 134.793-95.215 249.509 0 153.721 48.181 330.386 422.159 330.386h91.774v110.128c0 14.913 9.178 28.106 22.37 33.841 4.588 1.72 9.751 2.868 14.34 2.868 9.751 0 18.928-4.015 25.811-10.898l220.257-220.257c14.34-14.34 14.34-37.283 0-51.623z" />
<glyph unicode="&#xf056;" glyph-name="minus-circle" horiz-adv-x="878" d="M694.858 402.286v73.143c0 20-16.571 36.571-36.571 36.571h-438.858c-20 0-36.571-16.571-36.571-36.571v-73.143c0-20 16.571-36.571 36.571-36.571h438.858c20 0 36.571 16.571 36.571 36.571zM877.715 438.857c0-242.287-196.571-438.858-438.858-438.858s-438.858 196.571-438.858 438.858 196.571 438.858 438.858 438.858 438.858-196.571 438.858-438.858z" />
<glyph unicode="&#xf057;" glyph-name="times-circle" horiz-adv-x="878" d="M656.571 309.714c0 9.714-4 18.857-10.857 25.714l-103.429 103.429 103.429 103.429c6.857 6.857 10.857 16 10.857 25.714s-4 19.429-10.857 26.286l-51.429 51.429c-6.857 6.857-16.571 10.857-26.286 10.857s-18.857-4-25.714-10.857l-103.429-103.429-103.429 103.429c-6.857 6.857-16 10.857-25.714 10.857s-19.429-4-26.286-10.857l-51.429-51.429c-6.857-6.857-10.857-16.571-10.857-26.286s4-18.857 10.857-25.714l103.429-103.429-103.429-103.429c-6.857-6.857-10.857-16-10.857-25.714s4-19.429 10.857-26.286l51.429-51.429c6.857-6.857 16.571-10.857 26.286-10.857s18.857 4 25.714 10.857l103.429 103.429 103.429-103.429c6.857-6.857 16-10.857 25.714-10.857s19.429 4 26.286 10.857l51.429 51.429c6.857 6.857 10.857 16.571 10.857 26.286zM877.715 438.857c0-242.287-196.571-438.858-438.858-438.858s-438.858 196.571-438.858 438.858 196.571 438.858 438.858 438.858 438.858-196.571 438.858-438.858z" />
<glyph unicode="&#xf05a;" glyph-name="info-circle" horiz-adv-x="878" d="M585.143 164.57v91.429c0 10.286-8 18.286-18.286 18.286h-54.857v292.572c0 10.286-8 18.286-18.286 18.286h-182.857c-10.286 0-18.286-8-18.286-18.286v-91.429c0-10.286 8-18.286 18.286-18.286h54.857v-182.857h-54.857c-10.286 0-18.286-8-18.286-18.286v-91.429c0-10.286 8-18.286 18.286-18.286h256.001c10.286 0 18.286 8 18.286 18.286zM512 676.572v91.429c0 10.286-8 18.286-18.286 18.286h-109.714c-10.286 0-18.286-8-18.286-18.286v-91.429c0-10.286 8-18.286 18.286-18.286h109.714c10.286 0 18.286 8 18.286 18.286zM877.715 438.857c0-242.287-196.571-438.858-438.858-438.858s-438.858 196.571-438.858 438.858 196.571 438.858 438.858 438.858 438.858-196.571 438.858-438.858z" />
<glyph unicode="&#xf067;" glyph-name="plus" d="M1024 508.675v-139.636c0-38.546-31.272-69.818-69.818-69.818h-302.546v-302.546c0-38.546-31.272-69.818-69.818-69.818h-139.636c-38.546 0-69.818 31.272-69.818 69.818v302.546h-302.546c-38.546 0-69.818 31.272-69.818 69.818v139.636c0 38.546 31.272 69.818 69.818 69.818h302.546v302.546c0 38.546 31.272 69.818 69.818 69.818h139.636c38.546 0 69.818-31.272 69.818-69.818v-302.546h302.546c38.546 0 69.818-31.272 69.818-69.818z" />
<glyph unicode="&#xf06a;" glyph-name="exclamation-circle" horiz-adv-x="878" d="M438.857 877.715c242.287 0 438.858-196.571 438.858-438.858s-196.571-438.858-438.858-438.858-438.858 196.571-438.858 438.858 196.571 438.858 438.858 438.858zM512 165.142v108.571c0 10.286-8 18.857-17.714 18.857h-109.714c-10.286 0-18.857-8.571-18.857-18.857v-108.571c0-10.286 8.571-18.857 18.857-18.857h109.714c9.714 0 17.714 8.571 17.714 18.857zM510.857 361.714l10.286 354.858c0 4-1.714 8-5.714 10.286-3.429 2.857-8.571 4.571-13.714 4.571h-125.714c-5.143 0-10.286-1.714-13.714-4.571-4-2.286-5.714-6.286-5.714-10.286l9.714-354.858c0-8 8.571-14.286 19.429-14.286h105.714c10.286 0 18.857 6.286 19.429 14.286z" />
<glyph unicode="&#xf0a8;" glyph-name="arrow-circle-left" horiz-adv-x="841" d="M700.955 403.809v70.096c0 19.167-15.881 35.048-35.048 35.048h-274.907l103.501 103.501c6.571 6.571 10.405 15.333 10.405 24.643s-3.833 18.071-10.405 24.643l-49.834 49.834c-6.571 6.571-15.333 9.858-24.643 9.858s-18.071-3.286-24.643-9.858l-248.074-248.074c-6.571-6.571-9.858-15.333-9.858-24.643s3.286-18.071 9.858-24.643l248.074-248.074c6.571-6.571 15.333-9.858 24.643-9.858s18.071 3.286 24.643 9.858l49.834 49.834c6.571 6.571 9.858 15.333 9.858 24.643s-3.286 18.071-9.858 24.643l-103.501 103.501h274.907c19.167 0 35.048 15.881 35.048 35.048zM841.147 438.857c0-232.193-188.382-420.576-420.576-420.576s-420.576 188.382-420.576 420.576 188.382 420.576 420.576 420.576 420.576-188.382 420.576-420.576z" />
<glyph unicode="&#xf0a9;" glyph-name="arrow-circle-right" horiz-adv-x="878" d="M734.287 438.857c0 9.714-3.429 18.857-10.286 25.714l-258.858 258.858c-6.857 6.857-16 10.286-25.714 10.286s-18.857-3.429-25.714-10.286l-52-52c-6.857-6.857-10.286-16-10.286-25.714s3.429-18.857 10.286-25.714l108-108h-286.858c-20 0-36.571-16.571-36.571-36.571v-73.143c0-20 16.571-36.571 36.571-36.571h286.858l-108-108c-6.857-6.857-10.857-16-10.857-25.714s4-18.857 10.857-25.714l52-52c6.857-6.857 16-10.286 25.714-10.286s18.857 3.429 25.714 10.286l258.858 258.858c6.857 6.857 10.286 16 10.286 25.714zM877.715 438.857c0-242.287-196.571-438.858-438.858-438.858s-438.858 196.571-438.858 438.858 196.571 438.858 438.858 438.858 438.858-196.571 438.858-438.858z" />
<glyph unicode="&#xf0c7;" glyph-name="floppy-o, save" horiz-adv-x="878" d="M219.429 73.142h438.858v219.429h-438.858v-219.429zM731.43 73.142h73.143v512.001c0 10.857-9.714 34.286-17.143 41.714l-160.571 160.571c-8 8-30.286 17.143-41.714 17.143v-237.715c0-30.286-24.571-54.857-54.857-54.857h-329.144c-30.286 0-54.857 24.571-54.857 54.857v237.715h-73.143v-731.431h73.143v237.715c0 30.286 24.571 54.857 54.857 54.857h475.43c30.286 0 54.857-24.571 54.857-54.857v-237.715zM512 603.428v182.857c0 9.714-8.571 18.286-18.286 18.286h-109.714c-9.714 0-18.286-8.571-18.286-18.286v-182.857c0-9.714 8.571-18.286 18.286-18.286h109.714c9.714 0 18.286 8.571 18.286 18.286zM877.715 585.143v-530.287c0-30.286-24.571-54.857-54.857-54.857h-768.002c-30.286 0-54.857 24.571-54.857 54.857v768.002c0 30.286 24.571 54.857 54.857 54.857h530.287c30.286 0 72-17.143 93.714-38.857l160-160c21.714-21.714 38.857-63.429 38.857-93.714z" />
<glyph unicode="&#xf0e7;" glyph-name="bolt, flash" horiz-adv-x="513" d="M506.425 664.327c6.295-6.867 8.012-16.595 4.006-25.18l-309.020-662.106c-4.578-8.583-13.734-14.307-24.035-14.307-2.289 0-5.15 0.572-8.012 1.145-12.589 4.006-20.029 16.023-17.168 28.041l112.735 462.387-232.338-57.798c-2.289-0.572-4.578-0.572-6.867-0.572-6.295 0-13.162 2.289-17.74 6.295-6.867 5.722-9.156 14.307-7.44 22.318l115.024 472.116c2.861 10.873 13.162 18.313 25.18 18.313h187.702c14.307 0 25.751-10.873 25.751-24.035 0-3.434-1.145-6.867-2.861-10.301l-97.856-264.956 226.616 56.082c2.289 0.572 4.578 1.145 6.867 1.145 7.44 0 14.307-3.434 19.457-8.583z" />
<glyph unicode="&#xf0fe;" glyph-name="plus-square" horiz-adv-x="878" d="M731.43 402.285v73.143c0 20-16.571 36.571-36.571 36.571h-182.858v182.858c0 20-16.571 36.571-36.571 36.571h-73.143c-20 0-36.571-16.571-36.571-36.571v-182.858h-182.858c-20 0-36.571-16.571-36.571-36.571v-73.143c0-20 16.571-36.571 36.571-36.571h182.858v-182.858c0-20 16.571-36.571 36.571-36.571h73.143c20 0 36.571 16.571 36.571 36.571v182.858h182.858c20 0 36.571 16.571 36.571 36.571zM877.716 713.143v-548.573c0-90.857-73.714-164.572-164.572-164.572h-548.573c-90.857 0-164.572 73.714-164.572 164.572v548.573c0 90.857 73.714 164.572 164.572 164.572h548.573c90.857 0 164.572-73.714 164.572-164.572z" />
<glyph unicode="&#xf129;" glyph-name="info" horiz-adv-x="366" d="M365.714 146.285v-73.143c0-20-16.571-36.571-36.571-36.571h-292.572c-20 0-36.571 16.571-36.571 36.571v73.143c0 20 16.571 36.571 36.571 36.571h36.571v219.43h-36.571c-20 0-36.571 16.571-36.571 36.571v73.143c0 20 16.571 36.571 36.571 36.571h219.43c20 0 36.571-16.571 36.571-36.571v-329.144h36.571c20 0 36.571-16.571 36.571-36.571zM292.57 804.573v-109.714c0-20-16.571-36.571-36.571-36.571h-146.287c-20 0-36.571 16.571-36.571 36.571v109.714c0 20 16.571 36.571 36.571 36.571h146.287c20 0 36.571-16.571 36.571-36.571z" />
<glyph unicode="&#xf12a;" glyph-name="exclamation" horiz-adv-x="366" d="M322.496 136.311v-162.909c0-25.455-21.090-46.545-46.545-46.545h-186.182c-25.455 0-46.545 21.090-46.545 46.545v162.909c0 25.455 21.090 46.545 46.545 46.545h186.182c25.455 0 46.545-21.090 46.545-46.545zM344.313 904.312l-20.364-558.545c-0.727-25.455-22.545-46.545-48-46.545h-186.182c-25.455 0-47.273 21.090-48 46.545l-20.364 558.545c-0.727 25.455 19.637 46.545 45.091 46.545h232.726c25.455 0 45.818-21.090 45.091-46.545z" />
<glyph unicode="&#xf137;" glyph-name="chevron-circle-left" horiz-adv-x="878" d="M519.429 153.713l58.286 58.286c14.286 14.286 14.286 37.143 0 51.429l-175.429 175.429 175.429 175.429c14.286 14.286 14.286 37.143 0 51.429l-58.286 58.286c-14.286 14.286-37.143 14.286-51.429 0l-259.43-259.43c-14.286-14.286-14.286-37.143 0-51.429l259.43-259.43c14.286-14.286 37.143-14.286 51.429 0zM877.715 438.857c0-242.287-196.571-438.858-438.858-438.858s-438.858 196.571-438.858 438.858 196.571 438.858 438.858 438.858 438.858-196.571 438.858-438.858z" />
<glyph unicode="&#xf138;" glyph-name="chevron-circle-right" horiz-adv-x="878" d="M409.714 153.713l259.43 259.43c14.286 14.286 14.286 37.143 0 51.429l-259.43 259.43c-14.286 14.286-37.143 14.286-51.429 0l-58.286-58.286c-14.286-14.286-14.286-37.143 0-51.429l175.429-175.429-175.429-175.429c-14.286-14.286-14.286-37.143 0-51.429l58.286-58.286c14.286-14.286 37.143-14.286 51.429 0zM877.715 438.857c0-242.287-196.571-438.858-438.858-438.858s-438.858 196.571-438.858 438.858 196.571 438.858 438.858 438.858 438.858-196.571 438.858-438.858z" />
<glyph unicode="&#xf14b;" glyph-name="pencil-square" horiz-adv-x="878" d="M230.856 317.713l86.857-86.857-29.714-29.714h-32v54.857h-54.857v32zM467.429 540.57c4.571-4 3.429-12-1.714-17.143l-166.287-166.287c-5.143-5.143-13.143-6.286-17.143-1.714-4.571 4-3.429 12 1.714 17.143l166.287 166.287c5.143 5.143 13.143 6.286 17.143 1.714zM310.857 146.284l310.858 310.858-164.572 164.572-310.858-310.858v-164.572h164.572zM658.287 493.713l52.571 52.571c21.143 21.143 21.143 56.571 0 77.714l-86.857 86.857c-21.143 21.143-56.571 21.143-77.714 0l-52.571-52.571zM877.716 713.143v-548.573c0-90.857-73.714-164.572-164.572-164.572h-548.573c-90.857 0-164.572 73.714-164.572 164.572v548.573c0 90.857 73.714 164.572 164.572 164.572h548.573c90.857 0 164.572-73.714 164.572-164.572z" />
<glyph unicode="&#xf14d;" glyph-name="share-square" horiz-adv-x="878" d="M574.286 321.713l201.144 201.144c14.286 14.286 14.286 37.143 0 51.429l-201.144 201.144c-10.286 10.857-26.286 13.714-39.429 8-13.714-5.714-22.857-18.857-22.857-33.714v-91.429c-328.001 0-365.715-188.001-365.715-329.144 0-114.857 92-226.287 95.429-230.858 4-4.571 9.143-6.857 14.286-6.857 2.286 0 5.143 0.571 7.429 1.714 7.429 2.857 12 10.857 10.857 18.857-17.143 137.714-6.286 223.43 35.429 270.287 34.857 39.429 95.429 56.571 202.287 56.571v-91.429c0-14.857 9.143-28 22.857-33.714 4-1.714 9.143-2.857 13.714-2.857 9.714 0 18.857 4 25.714 10.857zM877.716 713.143v-548.573c0-90.857-73.714-164.572-164.572-164.572h-548.573c-90.857 0-164.572 73.714-164.572 164.572v548.573c0 90.857 73.714 164.572 164.572 164.572h548.573c90.857 0 164.572-73.714 164.572-164.572z" />
<glyph unicode="&#xf2d3;" glyph-name="times-rectangle, window-close" d="M671.43 195.999l83.429 83.429c7.429 7.429 7.429 18.857 0 26.286l-133.143 133.143 133.143 133.143c7.429 7.429 7.429 18.857 0 26.286l-83.429 83.429c-7.429 7.429-18.857 7.429-26.286 0l-133.143-133.143-133.143 133.143c-7.429 7.429-18.857 7.429-26.286 0l-83.429-83.429c-7.429-7.429-7.429-18.857 0-26.286l133.143-133.143-133.143-133.143c-7.429-7.429-7.429-18.857 0-26.286l83.429-83.429c7.429-7.429 18.857-7.429 26.286 0l133.143 133.143 133.143-133.143c7.429-7.429 18.857-7.429 26.286 0zM1024.001 786.285v-694.856c0-50.286-41.143-91.429-91.429-91.429h-841.142c-50.286 0-91.429 41.143-91.429 91.429v694.856c0 50.286 41.143 91.429 91.429 91.429h841.142c50.286 0 91.429-41.143 91.429-91.429z" />
<glyph unicode="&#xf2d4;" glyph-name="times-rectangle-o, window-close-o" d="M718.286 315.999l-83.429-83.429c-7.429-7.429-18.857-7.429-26.286 0l-96.571 96.571-96.571-96.571c-7.429-7.429-18.857-7.429-26.286 0l-83.429 83.429c-7.429 7.429-7.429 18.857 0 26.286l96.571 96.571-96.571 96.571c-7.429 7.429-7.429 18.857 0 26.286l83.429 83.429c7.429 7.429 18.857 7.429 26.286 0l96.571-96.571 96.571 96.571c7.429 7.429 18.857 7.429 26.286 0l83.429-83.429c7.429-7.429 7.429-18.857 0-26.286l-96.571-96.571 96.571-96.571c7.429-7.429 7.429-18.857 0-26.286zM146.286 146.285h731.428v585.142h-731.428v-585.142zM1024 786.285v-694.856c0-50.286-41.143-91.429-91.429-91.429h-841.142c-50.286 0-91.429 41.143-91.429 91.429v694.856c0 50.286 41.143 91.429 91.429 91.429h841.142c50.286 0 91.429-41.143 91.429-91.429z" />
</font>
</defs>
</svg>
